HIERARCHY
ROOT hip
{
  OFFSET 0 0 0
  CHANNELS 6 Xposition Yposition Zposition Zrotation Yrotation Xrotation
  JOINT abdomen
  {
    OFFSET 0 20.6881 -0.73152
    CHANNELS 3 Zrotation Xrotation Yrotation
    JOINT chest
    {
      OFFSET 0 11.7043 -0.48768
      CHANNELS 3 Zrotation Xrotation Yrotation
      JOINT neck
      {
        OFFSET 0 22.1894 -2.19456
        CHANNELS 3 Zrotation Xrotation Yrotation
        JOINT head
        {
          OFFSET -0.24384 7.07133 1.2192
          CHANNELS 3 Zrotation Xrotation Yrotation
          JOINT leftEye
          {
            OFFSET 4.14528 8.04674 8.04672
            CHANNELS 3 Zrotation Xrotation Yrotation
            End Site
            {
              OFFSET 1 0 0
            }
          }
          JOINT rightEye
          {
            OFFSET -3.6576 8.04674 8.04672
            CHANNELS 3 Zrotation Xrotation Yrotation
            End Site
            {
              OFFSET 1 0 0
            }
          }
        }
      }
      JOINT rCollar
      {
        OFFSET -2.68224 19.2634 -4.8768
        CHANNELS 3 Zrotation Xrotation Yrotation
        JOINT rShldr
        {
          OFFSET -8.77824 -1.95073 1.46304
          CHANNELS 3 Zrotation Xrotation Yrotation
          JOINT rForeArm
          {
            OFFSET -28.1742 -1.7115 0.48768
            CHANNELS 3 Zrotation Xrotation Yrotation
            JOINT rHand
            {
              OFFSET -22.5879 0.773209 7.07136
              CHANNELS 3 Zrotation Xrotation Yrotation
              JOINT rThumb1
              {
                OFFSET -1.2192 -0.487915 3.41376
                CHANNELS 3 Zrotation Xrotation Yrotation
                JOINT rThumb2
                {
                  OFFSET -3.37035 -0.52449 3.41376
                  CHANNELS 3 Zrotation Xrotation Yrotation
                  End Site
                  {
                    OFFSET -1.78271 -1.18214 1.43049
                  }
                }
              }
              JOINT rIndex1
              {
                OFFSET -7.75947 0.938293 5.60832
                CHANNELS 3 Zrotation Xrotation Yrotation
                JOINT rIndex2
                {
                  OFFSET -2.54057 -0.884171 1.56538
                  CHANNELS 3 Zrotation Xrotation Yrotation
                  End Site
                  {
                    OFFSET -1.62519 -0.234802 1.16502
                  }
                }
              }
              JOINT rMid1
              {
                OFFSET -8.24714 1.18213 3.41376
                CHANNELS 3 Zrotation Xrotation Yrotation
                JOINT rMid2
                {
                  OFFSET -3.10165 -0.590103 1.0647
                  CHANNELS 3 Zrotation Xrotation Yrotation
                  End Site
                  {
                    OFFSET -2.48547 -0.328903 0.83742
                  }
                }
              }
              JOINT rRing1
              {
                OFFSET -8.82822 0.546677 1.51678
                CHANNELS 3 Zrotation Xrotation Yrotation
                JOINT rRing2
                {
                  OFFSET -2.60934 -0.819778 -0.0198488
                  CHANNELS 3 Zrotation Xrotation Yrotation
                  End Site
                  {
                    OFFSET -2.33842 -0.294052 0.168128
                  }
                }
              }
              JOINT rPinky1
              {
                OFFSET -8.27202 -0.0477905 -0.4584
                CHANNELS 3 Zrotation Xrotation Yrotation
                JOINT rPinky2
                {
                  OFFSET -1.82734 -0.647385 -0.700984
                  CHANNELS 3 Zrotation Xrotation Yrotation
                  End Site
                  {
                    OFFSET -1.69225 -0.51767 -0.607171
                  }
                }
              }
            }
          }
        }
      }
      JOINT lCollar
      {
        OFFSET 2.68224 19.2634 -4.8768
        CHANNELS 3 Zrotation Xrotation Yrotation
        JOINT lShldr
        {
          OFFSET 8.77824 -1.95073 1.46304
          CHANNELS 3 Zrotation Xrotation Yrotation
          JOINT lForeArm
          {
            OFFSET 28.1742 -1.7115 0.48768
            CHANNELS 3 Zrotation Xrotation Yrotation
            JOINT lHand
            {
              OFFSET 22.5879 0.773209 7.07136
              CHANNELS 3 Zrotation Xrotation Yrotation
              JOINT lThumb1
              {
                OFFSET 1.2192 -0.487915 3.41376
                CHANNELS 3 Zrotation Xrotation Yrotation
                JOINT lThumb2
                {
                  OFFSET 3.37035 -0.52449 3.41376
                  CHANNELS 3 Zrotation Xrotation Yrotation
                  End Site
                  {
                    OFFSET 1.78271 -1.18214 1.43049
                  }
                }
              }
              JOINT lIndex1
              {
                OFFSET 7.75947 0.938293 5.60832
                CHANNELS 3 Zrotation Xrotation Yrotation
                JOINT lIndex2
                {
                  OFFSET 2.54057 -0.884171 1.56538
                  CHANNELS 3 Zrotation Xrotation Yrotation
                  End Site
                  {
                    OFFSET 1.62519 -0.234802 1.16502
                  }
                }
              }
              JOINT lMid1
              {
                OFFSET 8.24714 1.18213 3.41376
                CHANNELS 3 Zrotation Xrotation Yrotation
                JOINT lMid2
                {
                  OFFSET 3.10165 -0.590103 1.0647
                  CHANNELS 3 Zrotation Xrotation Yrotation
                  End Site
                  {
                    OFFSET 2.48547 -0.328903 0.83742
                  }
                }
              }
              JOINT lRing1
              {
                OFFSET 8.82822 0.546677 1.51678
                CHANNELS 3 Zrotation Xrotation Yrotation
                JOINT lRing2
                {
                  OFFSET 2.60934 -0.819778 -0.0198488
                  CHANNELS 3 Zrotation Xrotation Yrotation
                  End Site
                  {
                    OFFSET 2.33842 -0.294052 0.168128
                  }
                }
              }
              JOINT lPinky1
              {
                OFFSET 8.27202 -0.0477905 -0.4584
                CHANNELS 3 Zrotation Xrotation Yrotation
                JOINT lPinky2
                {
                  OFFSET 1.82734 -0.647385 -0.700984
                  CHANNELS 3 Zrotation Xrotation Yrotation
                  End Site
                  {
                    OFFSET 1.69225 -0.51767 -0.607171
                  }
                }
              }
            }
          }
        }
      }
    }
  }
  JOINT rButtock
  {
    OFFSET -8.77824 4.35084 1.2192
    CHANNELS 3 Zrotation Xrotation Yrotation
    JOINT rThigh
    {
      OFFSET 0 -1.70687 -2.19456
      CHANNELS 3 Zrotation Xrotation Yrotation
      JOINT rShin
      {
        OFFSET 0 -36.8199 0.73152
        CHANNELS 3 Zrotation Xrotation Yrotation
        JOINT rFoot
        {
          OFFSET 0.73152 -45.1104 -5.12064
          CHANNELS 3 Zrotation Xrotation Yrotation
          End Site
          {
            OFFSET -1.1221 -3.69964 12.103
          }
        }
      }
    }
  }
  JOINT lButtock
  {
    OFFSET 8.77824 4.35084 1.2192
    CHANNELS 3 Zrotation Xrotation Yrotation
    JOINT lThigh
    {
      OFFSET 0 -1.70687 -2.19456
      CHANNELS 3 Zrotation Xrotation Yrotation
      JOINT lShin
      {
        OFFSET 0 -36.8199 0.73152
        CHANNELS 3 Zrotation Xrotation Yrotation
        JOINT lFoot
        {
          OFFSET -0.73152 -45.1104 -5.12064
          CHANNELS 3 Zrotation Xrotation Yrotation
          End Site
          {
            OFFSET 1.1221 -3.69964 12.103
          }
        }
      }
    }
  }
}
MOTION
Frames:	4
Frame Time:	0.03333
0.0 0.0 0.0 0.0 0.0 0.0 0.0 0.0 0.0 0.0 0.0 0.0 0.0 0.0 0.0 0.0 0.0 0.0 0.0 0.0 0.0 0.0 0.0 0.0 0.0 0.0 0.0 0.0 0.0 0.0 0.0 0.0 0.0 0.0 0.0 0.0 0.0 0.0 0.0 0.0 0.0 0.0 0.0 0.0 0.0 0.0 0.0 0.0 0.0 0.0 0.0 0.0 0.0 0.0 0.0 0.0 0.0 0.0 0.0 0.0 0.0 0.0 0.0 0.0 0.0 0.0 0.0 0.0 0.0 0.0 0.0 0.0 0.0 0.0 0.0 0.0 0.0 0.0 0.0 0.0 0.0 0.0 0.0 0.0 0.0 0.0 0.0 0.0 0.0 0.0 0.0 0.0 0.0 0.0 0.0 0.0 0.0 0.0 0.0 0.0 0.0 0.0 0.0 0.0 0.0 0.0 0.0 0.0 0.0 0.0 0.0 0.0 0.0 0.0 0.0 0.0 0.0 0.0 0.0 0.0 0.0 0.0 0.0 0.0 0.0 0.0 0.0 0.0 0.0 0.0 0.0 0.0
0.0729 62.230399999999996 -0.0671 -178.886635 46.676922 179.774069 -0.946709 0.678813 102.88069 11.053142 -3.176063 -96.008514 -9.880695 -8.025234 -94.543362 21.490727 -31.104994 25.435882 157.278243 -7.687921 36.980548 17.025055 -9.701639 -59.106573 -84.920737 -18.62145 163.144903 3.044231 18.397551 9.044588 176.211584 -0.381246 -29.514568 -0.774285 30.478743 -61.416967 -4.366408 -22.390729 45.085679 -88.749862 56.226128 -117.440202 164.779733 43.028172 -119.696923 -109.029465 40.685267 -119.657729 125.0302 26.688724 -93.382165 -161.074326 -2.62443 160.630974 -82.965333 7.052123 -95.774826 -89.6792 -76.316612 -94.403294 10.537655 7.189326 -64.589336 -152.16675 8.027007 -140.508157 -61.289324 41.056008 -16.457188 -33.965371 -68.826157 -22.089441 -4.586175 71.506883 -159.079959 11.375833 49.565763 32.837903 167.248478 10.618774 -78.252895 -82.605877 -64.887293 -57.441599 150.35112 3.5668 -104.547538 176.322545 -5.63364 -115.924064 161.303241 34.317404 -78.442735 -45.097668 -17.536286 -87.748703 -88.154306 -10.787379 88.295527 130.810354 -1.879234 -173.391971 -163.813364 12.367471 34.684828 3.468369 -1.965559 1.82148 -37.048152 -39.080161 -45.109881 6.403748 53.730052 -0.0 5.431441 2.523726 129.45187 -71.952868 53.085239 85.943022 -45.329715 35.567686 -117.804911 0.637875 56.520221 2.367625 2.249045 4.29503 144.473651 55.560113 -48.609522 -123.742149
1.4668 59.5792 1.09 -165.695739 32.447158 -171.473587 5.203139 17.47877 -1.359414 4.286708 -8.733221 12.662262 -9.802398 28.485566 -99.531993 44.870462 21.19399 104.692478 42.07466 -11.948613 -30.44277 6.933302 1.468684 23.893288 -156.132529 0.628792 165.792071 138.743987 -1.790418 148.882561 176.325829 -11.7544 45.497098 -162.87531 17.120276 141.317824 -2.058044 0.996702 -14.242333 6.635547 -13.632061 -7.007305 -92.998918 43.067414 75.074153 46.017399 29.943985 11.80256 -4.770894 36.294528 3.038337 -11.533615 44.780014 4.76009 -19.143089 8.889006 3.622818 -114.899813 -46.654105 -171.039428 -17.33681 -41.275659 -20.06223 65.192131 85.476433 -27.558709 113.334196 63.629808 -119.19575 50.729139 24.013394 -37.92988 178.446985 -10.547357 141.650659 3.203315 36.978767 -1.694723 4.78721 -5.501265 -2.881283 17.409463 3.759506 -20.023289 96.357098 36.579377 -71.354531 34.457476 55.992001 -18.099456 3.902262 -12.727757 5.886106 179.259818 -60.033534 -116.530458 1.230756 -13.437822 -2.556177 -20.442834 -6.812152 2.771284 10.175297 1.118903 -4.017748 138.23282 -25.321599 125.940788 142.161917 73.557913 24.866637 153.960902 71.47962 63.729502 47.365625 30.65057 68.074257 83.538484 54.372626 176.18163 176.021502 59.842777 -0.0 -139.150518 -9.2773 100.80104 78.206182 -9.850168 119.354612 -132.717175 44.57427 -167.024689
2.5584 54.908199999999994 1.5015 -164.412835 30.765816 -168.549956 3.123145 6.153029 129.483425 -7.278722 -7.886649 -124.516392 1.002006 13.948798 52.436512 -23.276039 -19.942314 -37.999837 136.530209 17.918051 -43.153565 5.956999 -0.340546 -6.53792 -161.404186 -3.421462 160.388082 9.263904 -54.875448 67.428319 58.264196 -1.093151 168.873757 -72.251458 58.631106 46.436357 -162.210664 -20.287636 103.044947 -2.64352 -65.677398 -27.939245 -82.031554 55.603925 61.24812 -170.736425 -20.83716 104.563186 -152.14965 -67.240595 163.186819 -4.788839 59.291112 39.722034 -3.674401 -15.244399 0.78345 18.897534 -44.097112 -10.089963 -153.879498 -13.730488 -128.006062 -2.782778 34.203098 -7.678353 69.134595 76.121029 -75.715328 -178.891591 12.868177 -129.729433 -60.370522 6.668259 6.359842 176.055139 63.132752 -158.958956 2.233026 -7.630041 4.876585 -41.439931 -56.174267 4.434022 9.460495 6.376339 -0.840606 45.339102 58.40021 -27.601644 157.859425 16.242543 -153.897767 32.367691 41.369261 0.342808 95.587581 -46.659646 99.038114 -50.235819 37.031716 24.495562 4.624078 59.906553 -2.70031 53.781994 70.993031 -112.932121 32.831143 7.467304 31.569837 -45.384383 26.278579 23.222716 43.236262 21.877434 84.247853 72.955365 20.966327 -177.897847 30.454873 18.647632 17.379969 64.278013 -71.141209 -0.0 -85.194354 0.850664 -48.318152 110.524207 -26.013801 -167.128319
